# xmcd
#
# Track frame offsets: 
#        150
#        10450
#        27412
#        38310
#        54657
#        68365
#        83147
#        95270
#        104910
#
# Disc length: 1950 seconds
#
# Revision: 1
# Processed by: cddbd v1.5PL3 Copyright (c) Steve Scherf et al.
# Submitted via: ExactAudioCopy v0.95a4
#
DISCID=68079c09
DTITLE=Screamin' Jay Hawkins - I Put A Spell On You
DYEAR=1977
DGENRE=Blues
TTITLE0=I Put A Spell On You
TTITLE1=I've Got You Under My Skin
TTITLE2=Time After Time
TTITLE3=Ebb Tide
TTITLE4=Move Me
TTITLE5=Africa Gone Funky
TTITLE6=Ashes
TTITLE7=I Need You
TTITLE8=Sweet Ginny (Instrumental)
EXTD=
EXTT0=
EXTT1=
EXTT2=
EXTT3=
EXTT4=
EXTT5=
EXTT6=
EXTT7=
EXTT8=
PLAYORDER=
